<svg width="301" height="125" viewBox="0 0 301 125" fill="none" xmlns="http://www.w3.org/2000/svg">
<path d="M238.012 4.41724C269.85 4.41724 295.752 30.3177 295.752 62.1558C295.752 93.9924 269.85 119.893 238.012 119.893H62.1575C30.3193 119.893 4.41765 93.9924 4.41765 62.1558C4.41765 30.3177 30.3193 4.41724 62.1575 4.41724H238.012ZM238.012 0H62.1575C27.971 0 0 27.9694 0 62.1558C0 96.3406 27.9706 124.31 62.1575 124.31H238.012C272.199 124.31 300.169 96.3406 300.169 62.1558C300.169 27.9694 272.199 0 238.012 0Z" fill="white"/>
<path d="M61.6313 97.0192C61.388 97.2722 61.2984 97.4288 61.04 97.6843C61.1175 97.7752 61.2903 97.9439 61.3597 98.0335C62.793 99.65 61.8937 100.919 62.0661 100.956C62.0943 100.971 62.3885 100.775 62.5908 100.173C62.801 99.5697 62.6388 98.5247 61.9873 97.5798C61.9232 97.4381 61.729 97.1665 61.6313 97.0192Z" fill="white"/>
<path d="M63.3003 84.6674C63.2801 84.6766 63.268 84.6904 63.2494 84.7013C62.6444 85.1356 62.0212 85.5251 61.3758 85.8815C62.2565 86.3016 62.9842 86.7807 63.1905 86.9091C63.3378 87.0039 62.6391 88.0546 61.9461 88.5296C61.2236 89.1532 60.4156 89.7114 59.6644 90.3205C58.9258 90.9372 58.1347 91.5556 57.6891 92.5969C57.1926 93.7626 57.8191 94.8358 58.5323 95.4174C58.8693 95.6919 59.4061 96.2957 59.702 96.5444C59.7621 96.3946 60.1903 96.0988 60.3243 95.7815C58.7611 94.4806 57.8102 92.9 60.5399 91.4684C61.2761 90.9372 62.1096 90.423 62.9568 89.7687C63.3782 89.4386 63.8121 89.0705 64.212 88.5857C64.5236 88.1147 65.2707 87.4495 64.8356 86.3347C64.4736 85.3983 63.8899 84.9568 63.3003 84.6674Z" fill="white"/>
<path d="M65.4999 72.3926C65.3913 72.4612 62.9587 73.4016 61.9068 73.8981C62.4207 74.0385 62.928 74.1818 63.4176 74.338C63.751 74.42 64.0464 74.5471 64.2244 74.6258C64.1817 74.6969 64.1134 74.78 64.017 74.8547C63.7131 75.1691 63.3159 75.3548 62.708 75.6458C61.5775 76.1765 60.4009 76.7041 59.2502 77.2675C58.0845 77.9795 56.9459 78.0582 55.7052 79.7446C54.9892 80.708 55.57 82.1372 56.0919 82.6204C56.6166 83.2294 57.1667 83.6121 57.7124 83.9612C57.9009 84.0871 58.0966 84.1993 58.2892 84.3075C58.8995 83.8175 59.6207 83.5717 60.2576 83.154C59.7555 82.8734 59.2688 82.5921 58.8232 82.2817C57.873 81.7066 57.2535 80.7455 57.5493 80.8263C57.7661 80.4796 59.2046 79.7676 60.2205 79.3127C61.3406 78.8041 62.5018 78.325 63.6985 77.8048C64.2483 77.5674 65.0474 77.2264 65.6682 76.631C66.1634 76.1438 67.4038 75.0803 66.5392 73.4731C66.228 72.8971 65.8599 72.5843 65.4999 72.3926Z" fill="white"/>
<path d="M67.5577 59.8005C66.9058 59.482 66.2116 59.2064 65.5811 58.9791C64.9091 59.497 62.0349 60.6089 61.4165 60.8604C62.1285 61.1308 62.8861 61.413 63.6914 61.6939C64.6282 62.0083 65.3724 62.2614 66.2059 62.6493C66.4118 62.7441 66.618 62.8474 66.8081 62.9475C66.5204 63.0521 66.2112 63.1469 65.8996 63.2394C64.9135 63.5166 63.8282 63.7265 62.7053 63.9057C60.5387 64.2884 57.8235 64.2428 55.2153 65.6482C54.5368 66.0159 53.841 66.3602 53.1826 67.3607C52.8589 67.856 52.7048 68.7754 52.9635 69.4212C53.2258 70.0812 53.575 70.4598 53.8987 70.7621C54.5529 71.3025 55.1858 71.6735 55.8191 71.9693C56.567 71.8018 57.239 71.4648 57.9559 71.1927C58.1125 71.1298 58.2691 71.0805 58.4269 71.0188C58.8273 70.8585 59.2273 70.6935 59.6301 70.5344C59.3048 70.4287 58.9811 70.3241 58.6772 70.2119C57.5611 69.8148 56.3729 69.2804 55.7638 68.7226C55.7396 68.7137 55.7239 68.6947 55.7061 68.6822C55.8643 68.5551 56.1783 68.3359 56.4851 68.1954C58.3668 67.2675 60.7163 67.2021 63.1481 66.8546C64.3428 66.6875 65.5234 66.4849 66.6979 66.1814C67.288 66.0155 67.8608 65.8347 68.4686 65.6006C69.5096 65.1913 70.1897 64.6803 70.5776 63.4113C71.1588 61.5147 68.0529 60.0467 67.5577 59.8005Z" fill="white"/>
<path d="M62.2446 90.7192C61.8995 91.0086 61.3748 91.5184 61.1851 91.6338C64.8718 93.7718 60.3112 95.6923 59.4455 97.5804C58.7977 98.5253 58.6382 99.5703 58.8497 100.174C59.0491 100.776 59.3409 100.972 59.3692 100.956C59.5432 100.919 58.6479 99.6554 60.0796 98.0341C60.7217 97.2244 61.7203 96.4563 62.9005 95.4214C63.4962 94.9254 64.2413 93.7625 63.7437 92.5969C63.3913 91.7723 62.8307 91.2185 62.2446 90.7192Z" fill="white"/>
<path d="M63.9467 78.0905C63.9426 78.0905 62.1857 79.0123 61.38 79.3885C62.377 79.8422 63.6803 80.4981 63.8865 80.8262C64.1836 80.7459 63.5612 81.7069 62.6151 82.2817C61.7251 82.896 60.668 83.4126 59.6977 83.9825C58.836 84.55 57.3079 84.5137 56.5987 86.3349C56.1652 87.4497 56.9103 88.1148 57.2247 88.5859C57.6235 89.0702 58.0574 89.4383 58.4788 89.7689C58.6382 89.8908 58.7944 90.007 58.9538 90.1196C59.4354 89.8278 59.9189 89.5465 60.3952 89.2563C60.0872 89.0222 59.7837 88.7784 59.4919 88.5293C58.7944 88.0543 58.0949 87.0041 58.2447 86.9116C58.4885 86.7562 59.4543 86.1137 60.549 85.6644C61.5673 85.1212 62.6296 84.6538 63.7295 83.9607C64.2687 83.6116 64.8201 83.229 65.3448 82.6199C65.8655 82.142 66.4463 80.7075 65.7303 79.7441C65.0748 78.8533 64.5646 78.4146 63.9467 78.0905Z" fill="white"/>
<path d="M67.3458 66.3485C66.539 66.6452 63.3354 67.2974 62.6032 67.446C63.4395 67.6131 64.229 67.8354 64.9503 68.1967C65.2554 68.3372 65.5727 68.5563 65.7333 68.6835C65.7144 68.6996 65.6958 68.7145 65.6692 68.7238C65.0641 69.282 63.8747 69.816 62.7627 70.2132C61.6386 70.6253 60.3902 70.9397 59.124 71.3252C58.4976 71.5189 57.87 71.7159 57.2318 71.9286C56.6752 72.203 55.6395 72.1163 54.8993 73.4729C54.0335 75.0801 55.2755 76.1436 55.7675 76.6308C56.2534 77.095 56.8488 77.407 57.3453 77.6318C58.2538 77.2423 59.1866 76.9145 60.0939 76.5267C60.1742 76.481 60.2521 76.4435 60.3321 76.391C59.79 76.1372 59.2548 75.8958 58.7301 75.646C58.1214 75.3549 57.7251 75.1693 57.4227 74.8548C57.3251 74.7798 57.2593 74.6966 57.2165 74.626C57.3905 74.5473 57.6875 74.4201 58.0221 74.3382C58.6122 74.1509 59.2237 73.9782 59.8404 73.8099C61.0582 73.4648 62.3308 73.183 63.6341 72.7455C64.9305 72.2692 66.1927 71.8721 67.5387 70.7625C67.86 70.4602 68.2132 70.0812 68.4755 69.4217C68.7282 68.7755 68.5801 67.856 68.2536 67.3612C67.9589 66.9156 67.6522 66.5919 67.3458 66.3485Z" fill="white"/>
<path d="M69.9097 47.0675C69.1606 46.5428 68.0684 46.4306 67.2039 46.3075C66.5617 46.2138 64.8661 45.7787 64.2893 46.1763C63.5026 46.726 64.2707 48.0661 64.7615 48.506C66.0568 49.6648 67.7738 50.2521 69.3422 50.8087C69.9283 51.0166 71.4193 51.8484 70.2161 52.6686C69.4371 53.2066 68.2436 53.829 66.5855 54.5608C65.7145 54.9543 63.8316 55.7971 61.1753 56.9014C59.8531 57.4539 58.3278 58.0763 56.6697 58.6866C55.8883 58.9594 54.8244 59.3332 53.873 59.7998C53.3778 60.046 50.2719 61.514 50.8527 63.4114C51.2422 64.6735 51.9219 65.1914 52.9657 65.6006C53.3483 65.7536 53.7192 65.8767 54.0926 65.9918C54.1555 65.9143 54.233 65.8432 54.319 65.7722C55.3761 64.9896 56.5377 64.1759 57.8079 63.7488C57.0128 63.6031 56.2447 63.4409 55.5331 63.2386C55.2187 63.1462 54.9107 63.0514 54.627 62.9468C54.8143 62.8467 55.0217 62.7434 55.2264 62.6485C56.0615 62.259 56.8025 62.0076 57.7393 61.6932C59.5072 61.0712 61.0502 60.4649 62.4084 59.9176C65.1208 58.8287 67.0412 57.9855 67.9485 57.5815C69.7858 56.6782 71.4839 56.0154 73.106 54.1822C73.929 53.1747 74.0884 51.6599 73.6453 50.5197C72.7642 48.2437 70.3541 47.3807 69.9097 47.0675Z" fill="white"/>
<path d="M59.9804 20.3894C57.8258 20.3894 56.0741 22.1411 56.0741 24.3009C56.0741 26.4583 57.8258 28.21 59.9804 28.21C62.143 28.21 63.8919 26.4583 63.8919 24.3009C63.8915 22.1411 62.1426 20.3894 59.9804 20.3894Z" fill="white"/>
<path d="M61.2873 28.7791H58.6791C58.3873 28.7791 58.152 29.0156 58.152 29.3034C58.152 29.6032 58.3873 29.8361 58.6791 29.8361H61.2873C61.5763 29.8361 61.8161 29.6032 61.8161 29.3034C61.8157 29.0156 61.5763 28.7791 61.2873 28.7791Z" fill="white"/>
<path d="M59.9788 30.4089C59.4997 30.4089 59.109 30.5627 59.109 31.2598L59.2563 57.1497C59.2628 57.1429 59.2668 57.1404 59.2761 57.1404C59.5748 56.9838 59.8743 56.8288 60.1742 56.6722C60.3162 56.5984 60.4567 56.556 60.5931 56.537C60.6452 56.5104 60.7017 56.485 60.7578 56.4583L60.8543 31.2602C60.8539 30.5627 60.4615 30.4089 59.9788 30.4089Z" fill="white"/>
<path d="M60.8076 98.0751C60.6296 98.1796 60.4533 98.2825 60.2753 98.3843L60.3031 103.393C60.3031 104.096 61.3618 104.096 61.3618 103.393L61.3804 98.2506C61.2763 98.249 61.1745 98.2172 61.0793 98.1837C60.9856 98.155 60.8932 98.1195 60.8076 98.0751Z" fill="white"/>
<path d="M59.9385 70.8122C60.3893 70.6451 60.8539 70.5276 61.3088 70.5276L61.3209 67.7959C60.8579 67.8819 60.3938 67.919 59.9252 67.923L59.9385 70.8122Z" fill="white"/>
<path d="M60.8607 86.306C60.5879 86.4227 60.3094 86.5418 60.0325 86.6447L60.0474 89.2246C60.0821 89.2569 60.1168 89.2848 60.1479 89.3146C60.1584 89.3187 60.1641 89.3336 60.1681 89.3425C60.1907 89.3611 60.2097 89.3788 60.2282 89.3974C60.2565 89.4204 60.2767 89.4511 60.2993 89.4834C60.5467 89.3296 60.7998 89.202 61.0754 89.1209C61.1344 89.1047 61.188 89.0979 61.2413 89.0902L61.2546 86.4235C61.1945 86.4142 61.1368 86.4045 61.0754 86.3924C61.0028 86.3581 60.9265 86.3351 60.8607 86.306Z" fill="white"/>
<path d="M60.0636 92.8924L60.0797 95.5192C60.1358 95.5672 60.1883 95.6169 60.2363 95.6706C60.2779 95.6988 60.3167 95.736 60.3566 95.7711C60.3619 95.7711 60.3699 95.7666 60.3752 95.7626C60.667 95.5898 60.96 95.5527 61.2155 95.6088L61.2248 92.3262C61.0751 92.3169 60.9237 92.2914 60.774 92.2632C60.5399 92.4739 60.307 92.687 60.0636 92.8924Z" fill="white"/>
<path d="M61.1517 80.0744C61.1449 80.0712 61.1412 80.0712 61.1368 80.0712C60.9923 79.9993 60.8599 79.915 60.7247 79.7866C60.4801 79.8536 60.2375 79.9243 59.9929 80.0034L60.0091 83.0342C60.1858 83.0907 60.3453 83.1827 60.4777 83.3058C60.7146 83.2376 60.9539 83.1734 61.1989 83.1359C61.2203 83.1318 61.2429 83.1318 61.2672 83.1318L61.2764 80.1301C61.2332 80.1111 61.1917 80.0926 61.1517 80.0744Z" fill="white"/>
<path d="M59.972 76.3057C60.0443 76.3816 60.1165 76.4676 60.1702 76.5588C60.1928 76.6016 60.2106 76.6428 60.2251 76.6767C60.5359 76.5734 60.8434 76.4676 61.1567 76.3768C61.1994 76.3683 61.2434 76.3582 61.289 76.3461L61.2971 74.0725C60.8527 74.2077 60.4071 74.3228 59.9591 74.4576L59.972 76.3057Z" fill="white"/>
<path d="M60.6406 61.8081C60.4748 61.8081 60.321 61.7891 60.1749 61.7653C60.0812 61.8057 59.9892 61.8497 59.8911 61.886L59.9044 64.3679C60.298 64.2621 60.6871 64.1633 61.0737 64.0377C61.1674 64.0123 61.2529 63.9937 61.3389 63.9897L61.347 61.704C61.1306 61.7678 60.9018 61.8081 60.6406 61.8081Z" fill="white"/>
<path d="M54.4379 36.0075C52.911 35.2353 54.2761 34.1649 54.8258 33.1744C55.3852 32.1629 56.046 30.4996 55.8054 29.3485C55.4829 27.8119 53.7675 26.7241 52.3274 26.4969C50.5075 26.2091 49.4984 26.8755 48.068 27.803C46.5612 28.7717 45.314 29.5547 43.6091 30.2397C38.0262 32.485 29.5998 36.1076 23.5737 36.6775C24.9214 38.3973 27.2176 39.9064 29.3439 40.0283C29.2249 41.1028 31.2535 42.2285 32.1059 42.5231C33.1456 42.8791 34.7327 42.8561 35.6881 42.3088C37.0329 44.3511 40.1428 45.0752 42.1246 43.445C42.2368 44.4379 43.9942 44.9691 44.7704 45.1459C46.2141 45.4748 47.0064 44.9784 48.334 44.6748C49.1634 44.4847 49.5206 45.0187 50.4279 45.2246C51.4931 45.4708 52.2491 45.3812 53.2154 44.9021C53.6424 44.6918 53.4789 44.5606 53.929 44.5982C54.199 44.6212 54.6058 44.9315 54.9243 44.9836C55.805 45.1148 56.4016 44.4589 56.8823 43.8434C57.3602 43.2266 57.9192 41.9056 58.4277 40.4994L58.4051 36.2161C56.936 36.3929 54.9207 36.2508 54.4379 36.0075Z" fill="white"/>
<path d="M71.8015 27.8035C70.3711 26.88 69.3661 26.2096 67.5462 26.4974C66.1036 26.7246 64.3922 27.8128 64.0653 29.349C63.826 30.5001 64.4855 32.1634 65.0477 33.1785C65.5938 34.1646 66.9613 35.2394 65.4332 36.0075C64.9609 36.2432 63.0272 36.3877 61.5697 36.2287L61.5511 40.7997C62.0315 42.0921 62.5469 43.2727 62.9884 43.8438C63.4675 44.4594 64.0669 45.1153 64.9464 44.9841C65.2649 44.932 65.6693 44.6216 65.9393 44.5986C66.393 44.5611 66.2299 44.6923 66.6554 44.9026C67.624 45.3776 68.3788 45.4713 69.448 45.2263C70.3525 45.0188 70.7057 44.4852 71.5408 44.6753C72.8671 44.9788 73.6578 45.4753 75.1016 45.1463C75.8777 44.9695 77.6335 44.4384 77.7457 43.4455C79.7315 45.0753 82.8374 44.3512 84.1823 42.3093C85.1405 42.8566 86.7247 42.8796 87.7644 42.5236C88.6181 42.2294 90.6455 41.1033 90.5264 40.0288C92.6539 39.9069 94.9477 38.3978 96.2978 36.682C90.2733 36.108 81.8441 32.4859 76.2652 30.2402C74.5583 29.5548 73.3095 28.7722 71.8015 27.8035Z" fill="white"/>
<path d="M50.4266 53.0516C49.2246 52.2314 50.7128 51.3991 51.2992 51.1892C52.873 50.6351 54.5871 50.0462 55.8852 48.889C56.3748 48.4486 57.1445 47.109 56.3574 46.5617C55.7807 46.1641 54.0854 46.5924 53.4388 46.6876C52.5771 46.8136 51.4865 46.9258 50.737 47.4477C50.2914 47.7609 47.8801 48.6266 46.9982 50.9019C46.5595 52.0445 46.7209 53.5593 47.5415 54.5671C49.1592 56.4016 50.8617 57.0615 52.6986 57.9661C53.191 58.1812 53.9781 58.5319 55.0352 58.9832C55.1809 58.8334 57.9949 57.83 59.0387 57.1059C56.6125 56.0912 54.881 55.3143 54.0608 54.9458C52.3991 54.2091 51.2108 53.5868 50.4266 53.0516Z" fill="white"/>
<path d="M96.5186 72.2207C94.1127 72.2207 92.2112 73.0223 90.8155 74.6214C89.4238 76.2258 88.7291 78.4215 88.7291 81.2089C88.7291 84.0791 89.3996 86.2901 90.7444 87.8558C92.0853 89.4186 94.0029 90.2016 96.4876 90.2016C98.0173 90.2016 99.7593 89.9247 101.719 89.3734V91.6067C100.2 92.1794 98.3236 92.4647 96.0981 92.4647C92.8719 92.4647 90.384 91.4823 88.6311 89.5231C86.8753 87.5708 86.0002 84.7874 86.0002 81.1783C86.0002 78.9192 86.4204 76.9418 87.2676 75.2434C88.1108 73.547 89.3285 72.2396 90.9224 71.3169C92.5163 70.3991 94.3924 69.9414 96.5521 69.9414C98.8484 69.9414 100.853 70.3616 102.571 71.2007L101.494 73.3887C99.8344 72.6097 98.1739 72.2207 96.5186 72.2207Z" fill="white"/>
<path d="M127.046 81.1781C127.046 84.6816 126.159 87.4436 124.386 89.452C122.612 91.4568 120.147 92.4646 116.991 92.4646C113.764 92.4646 111.276 91.4794 109.523 89.5045C107.769 87.5332 106.892 84.7458 106.892 81.1487C106.892 77.5855 107.769 74.8207 109.53 72.8575C111.286 70.893 113.786 69.9122 117.023 69.9122C120.171 69.9122 122.627 70.912 124.394 72.9095C126.162 74.9063 127.046 77.6642 127.046 81.1781ZM109.59 81.1781C109.59 84.1464 110.223 86.3946 111.486 87.9267C112.748 89.4665 114.584 90.231 116.991 90.231C119.417 90.231 121.251 89.4665 122.49 87.9388C123.73 86.4091 124.349 84.1569 124.349 81.1781C124.349 78.2341 123.73 76.0009 122.498 74.4756C121.266 72.9475 119.44 72.1899 117.024 72.1899C114.592 72.1899 112.748 72.958 111.486 74.4901C110.223 76.0239 109.59 78.2527 109.59 81.1781Z" fill="white"/>
<path d="M143.159 92.1646L135.727 72.7451H135.609C135.748 74.2841 135.819 76.1093 135.819 78.2303V92.1646H133.466V70.256H137.303L144.239 88.3241H144.358L151.355 70.256H155.161V92.1646H152.615V78.0491C152.615 76.4314 152.684 74.6704 152.826 72.7746H152.703L145.213 92.1646H143.159Z" fill="white"/>
<path d="M176.597 76.6377C176.597 78.8548 175.836 80.5641 174.327 81.7588C172.812 82.9507 170.648 83.5465 167.829 83.5465H165.251V92.1646H162.703V70.256H168.384C173.86 70.2556 176.597 72.3807 176.597 76.6377ZM165.252 81.3625H167.546C169.804 81.3625 171.439 80.9948 172.446 80.2638C173.454 79.5332 173.96 78.3676 173.96 76.7567C173.96 75.3118 173.484 74.2357 172.536 73.5237C171.588 72.8117 170.108 72.4598 168.101 72.4598H165.252L165.252 81.3625Z" fill="white"/>
<path d="M182.714 92.1646V70.256H185.262V89.8563H194.927V92.165L182.714 92.1646Z" fill="white"/>
<path d="M200.172 92.1646V70.256H202.718V92.1646H200.172Z" fill="white"/>
<path d="M224.038 92.1646L221.31 85.1953H212.53L209.832 92.1646H207.259L215.918 70.1664H218.061L226.674 92.1646H224.038ZM220.52 82.9055L217.97 76.117C217.642 75.2553 217.301 74.2062 216.952 72.9538C216.731 73.9132 216.417 74.9663 216.006 76.117L213.43 82.9055H220.52Z" fill="white"/>
<path d="M248.33 92.1646H245.426L233.454 73.778H233.331C233.494 75.9366 233.571 77.907 233.571 79.7141V92.1646H231.219V70.256H234.095L246.039 88.5675H246.157C246.138 88.2943 246.095 87.4289 246.023 85.9633C245.955 84.5067 245.93 83.4613 245.951 82.8268V70.256H248.33L248.33 92.1646Z" fill="white"/>
<path d="M262.632 92.1646H260.084V72.5203H253.144V70.256H269.571V72.5203H262.632V92.1646Z" fill="white"/>
<path d="M133.536 61.0746H125.671V49.2707H116.581V61.0746H108.722V32.1204H116.581V42.8543H125.671V32.1204H133.536V61.0746Z" fill="white"/>
<path d="M142.594 61.0746V32.1204H150.457V61.0746H142.594Z" fill="white"/>
<path d="M180.527 41.3298C180.527 44.5644 179.572 47.0625 177.665 48.8235C175.758 50.5885 173.047 51.4692 169.534 51.4692H167.339V61.0746H159.514V32.1204H169.534C173.192 32.1204 175.937 32.9183 177.774 34.5171C179.61 36.1154 180.527 38.3862 180.527 41.3298ZM167.339 45.0932H168.763C169.94 45.0932 170.873 44.7626 171.566 44.1027C172.259 43.4416 172.606 42.5294 172.606 41.3714C172.606 39.4134 171.523 38.4354 169.359 38.4354H167.339V45.0932H167.339Z" fill="white"/>
<path d="M204.058 61.0745L202.632 55.647H193.227L191.761 61.0745H183.166L192.611 32H203.046L212.613 61.0745H204.058ZM201.008 49.2294L199.761 44.4776C199.468 43.4217 199.116 42.0583 198.7 40.3788C198.285 38.7009 198.009 37.5018 197.88 36.7749C197.761 37.4469 197.524 38.5548 197.176 40.1015C196.824 41.6458 196.052 44.6903 194.849 49.2294H201.008Z" fill="white"/>
<path d="M238.294 61.0745L236.867 55.647H227.464L225.996 61.0745H217.403L226.845 32H237.284L246.848 61.0745H238.294ZM235.242 49.2294L233.995 44.4776C233.706 43.4217 233.354 42.0583 232.937 40.3788C232.517 38.7009 232.246 37.5018 232.113 36.7749C231.995 37.4469 231.759 38.5548 231.412 40.1015C231.061 41.6458 230.286 44.6903 229.083 49.2294H235.242Z" fill="white"/>
</svg>
